<svg width="80" height="80" viewBox="0 0 80 80" fill="none" xmlns="http://www.w3.org/2000/svg">
<path d="M22.127 3.59422C27.9815 3.63365 33.1632 6.1394 34.6962 12.2025C29.8755 3.8756 12.7804 9.48189 9.08802 17.161C4.56311 26.5691 13.7761 34.0181 22.9356 38.2192C24.4668 38.0435 26.0087 37.9793 27.5492 38.0271C32.3201 35.045 32.7778 30.7118 29.6749 25.1763L29.2051 25.5377C24.1762 29.4023 21.8751 25.504 26.4707 21.973C22.35 16.6136 26.4673 14.5892 30.0369 19.2317C35.6692 14.9027 38.1132 18.6896 32.7708 22.7969L32.6321 22.8967C37.6834 28.2704 39.5166 33.2935 35.6975 39.2198C40.5682 40.4646 45.1338 42.5603 49.0061 44.9402C51.0014 40.8773 53.9068 37.5846 58.117 34.9231L57.9711 34.654C56.0833 31.127 56.6484 28.8275 58.1251 28.856C59.1356 28.8758 60.568 29.9845 61.9297 32.5287C67.0949 29.7672 70.0158 33.3048 64.0553 36.494C66.7895 41.6026 63.0811 44.2099 60.0889 38.6191L59.9198 38.2964C56.9025 40.9073 54.331 43.8721 52.8574 47.5664C54.691 48.9516 56.2777 50.3629 57.5401 51.7087C57.8688 52.0595 58.3368 52.1753 58.8569 52.163C59.3855 51.0181 60.2153 50.0145 61.3756 49.2833C60.9781 47.3799 62.1667 45.5012 64.0714 45.0562C66.0036 44.6049 67.9407 45.8038 68.3917 47.7357C68.4196 47.854 68.438 47.9722 68.4533 48.0905C82.6471 48.6675 83.8114 54.81 71.6343 61.7261C71.6787 61.8512 71.7188 61.9789 71.7501 62.1112C72.2012 64.0428 71.0021 65.9794 69.0697 66.4303C67.1954 66.8684 65.3256 65.751 64.8026 63.9206C61.9067 63.6718 59.8025 61.6218 58.7952 59.0693C57.6998 58.2182 55.5038 58.5642 53.9359 58.9313C50.7034 59.6862 47.3174 59.8883 43.9003 59.6315C40.7585 61.3754 38.9874 63.3488 40.4425 67.593L41.2048 67.2079C46.8688 64.3535 48.4067 68.6197 43.2306 71.2272C46.2739 77.263 41.8549 78.4809 39.2179 73.2525C32.9224 76.425 31.2051 72.3286 37.0614 69.3022C35.2002 64.8061 35.3362 61.3158 37.8624 58.7231C34.4859 57.9667 31.1539 56.8143 27.981 55.3584C24.3838 60.7156 19.5978 64.8847 12.0231 65.2058L12.0386 65.7528C12.2276 72.4877 7.74041 72.983 7.54078 65.8833C1.68551 66.0497 0.654093 61.5782 7.40967 61.3868C7.24405 55.5955 11.7283 54.924 11.9075 61.2636L11.9154 61.5563C16.8777 59.9449 20.5166 56.5246 21.6582 51.924C19.8418 50.7709 18.1206 49.5193 16.5287 48.1977C3.57212 41.5102 -4.34401 24.9604 2.54243 13.3339C5.95928 7.56598 14.601 3.54347 22.1282 3.59422H22.127Z" fill="#36C9F8"/>
</svg>
